<svg xmlns="http://www.w3.org/2000/svg" width="1200" height="900" viewBox="0 0 1200 900" role="img" aria-labelledby="title desc">
  <title id="title">Midnight Ledger Bonumark Stream theme screenshot</title>
  <desc id="desc">A restrained dark editorial stream with copper accents and clean cards.</desc>
  <defs>
    <linearGradient id="bg" x1="0" y1="0" x2="1" y2="1">
      <stop offset="0" stop-color="#10151f"/>
      <stop offset="0.55" stop-color="#080b10"/>
      <stop offset="1" stop-color="#030405"/>
    </linearGradient>
    <linearGradient id="card" x1="0" y1="0" x2="1" y2="1">
      <stop offset="0" stop-color="#151a24"/>
      <stop offset="1" stop-color="#0c1017"/>
    </linearGradient>
  </defs>
  <rect width="1200" height="900" fill="url(#bg)"/>
  <rect x="110" y="80" width="980" height="112" rx="28" fill="#111722" stroke="#a96f3f" stroke-opacity="0.45"/>
  <rect x="146" y="112" width="132" height="12" rx="6" fill="#c08457" opacity="0.95"/>
  <rect x="146" y="138" width="360" height="20" rx="10" fill="#f4efe7" opacity="0.92"/>
  <rect x="760" y="116" width="118" height="34" rx="17" fill="#171f2b" stroke="#374151"/>
  <rect x="894" y="116" width="92" height="34" rx="17" fill="#171f2b" stroke="#374151"/>
  <rect x="110" y="232" width="980" height="174" rx="24" fill="url(#card)" stroke="#2b3441"/>
  <circle cx="160" cy="285" r="28" fill="#c08457" opacity="0.9"/>
  <rect x="210" y="264" width="180" height="15" rx="8" fill="#f4efe7" opacity="0.86"/>
  <rect x="210" y="302" width="740" height="15" rx="8" fill="#a8b0bc" opacity="0.75"/>
  <rect x="210" y="334" width="620" height="15" rx="8" fill="#a8b0bc" opacity="0.52"/>
  <rect x="110" y="430" width="980" height="174" rx="24" fill="url(#card)" stroke="#2b3441"/>
  <circle cx="160" cy="483" r="28" fill="#5b6ee1" opacity="0.8"/>
  <rect x="210" y="462" width="220" height="15" rx="8" fill="#f4efe7" opacity="0.86"/>
  <rect x="210" y="500" width="700" height="15" rx="8" fill="#a8b0bc" opacity="0.75"/>
  <rect x="210" y="532" width="480" height="15" rx="8" fill="#a8b0bc" opacity="0.52"/>
  <rect x="110" y="628" width="980" height="132" rx="24" fill="#0e131b" stroke="#2b3441"/>
  <rect x="146" y="672" width="230" height="16" rx="8" fill="#c08457" opacity="0.8"/>
  <rect x="146" y="706" width="520" height="14" rx="7" fill="#a8b0bc" opacity="0.5"/>
</svg>
